{
  "accessors": [
    {
      "bufferView": 2,
      "componentType": 5126,
      "count": 19998,
      "max": [
        -4312.6044921875,
        -306.5924987792969,
        198.77420043945313
      ],
      "min": [
        -4570.8544921875,
        -517.1558227539063,
        0.8586000204086304
      ],
      "type": "VEC3"
    },
    {
      "bufferView": 2,
      "byteOffset": 239976,
      "componentType": 5126,
      "count": 19998,
      "max": [
        0.9999985694885254,
        0.9999843835830688,
        1.0
      ],
      "min": [
        -0.9999985694885254,
        -0.9999843835830688,
        -1.0
      ],
      "type": "VEC3"
    },
    {
      "bufferView": 1,
      "componentType": 5126,
      "count": 19998,
      "max": [
        0.9908999800682068,
        0.9998999834060669
      ],
      "min": [
        0.009100000374019146,
        -9.999999747378752e-05
      ],
      "type": "VEC2"
    },
    {
      "bufferView": 0,
      "componentType": 5125,
      "count": 114048,
      "type": "SCALAR"
    },
    {
      "bufferView": 2,
      "byteOffset": 479952,
      "componentType": 5126,
      "count": 13190,
      "max": [
        -4268.2431640625,
        -382.1632995605469,
        123.40129852294922
      ],
      "min": [
        -4615.54443359375,
        -441.2638854980469,
        76.3147964477539
      ],
      "type": "VEC3"
    },
    {
      "bufferView": 2,
      "byteOffset": 638232,
      "componentType": 5126,
      "count": 13190,
      "max": [
        0.9999545812606812,
        0.9998972415924072,
        1.0
      ],
      "min": [
        -0.9999545812606812,
        -0.9992073774337769,
        -1.0
      ],
      "type": "VEC3"
    },
    {
      "bufferView": 1,
      "byteOffset": 159984,
      "componentType": 5126,
      "count": 13190,
      "max": [
        1.0312999486923218,
        1.0
      ],
      "min": [
        0.0,
        0.0
      ],
      "type": "VEC2"
    },
    {
      "bufferView": 0,
      "byteOffset": 456192,
      "componentType": 5125,
      "count": 76104,
      "type": "SCALAR"
    }
  ],
  "asset": {
    "extras": {
      "author": "Sahil_3D (https://sketchfab.com/Sahil_3D)",
      "license": "CC-BY-4.0 (http://creativecommons.org/licenses/by/4.0/)",
      "source": "https://sketchfab.com/3d-models/dumble-9095878211274991a4d95518dd9f952a",
      "title": "Dumble"
    },
    "generator": "Sketchfab-15.31.0",
    "version": "2.0"
  },
  "bufferViews": [
    {
      "buffer": 0,
      "byteLength": 760608,
      "name": "floatBufferViews",
      "target": 34963
    },
    {
      "buffer": 0,
      "byteLength": 265504,
      "byteOffset": 760608,
      "byteStride": 8,
      "name": "floatBufferViews",
      "target": 34962
    },
    {
      "buffer": 0,
      "byteLength": 796512,
      "byteOffset": 1026112,
      "byteStride": 12,
      "name": "floatBufferViews",
      "target": 34962
    }
  ],
  "buffers": [
    {
      "byteLength": 1822624,
      "uri": "scene.bin"
    }
  ],
  "extensionsUsed": [
    "KHR_materials_specular"
  ],
  "images": [
    {
      "uri": "textures/wire_008008136_baseColor.jpeg"
    }
  ],
  "materials": [
    {
      "doubleSided": true,
      "extensions": {
        "KHR_materials_specular": {
          "specularColorFactor": [
            1.0,
            1.0,
            1.0
          ],
          "specularFactor": 0.46171569284782576
        }
      },
      "name": "wire_008008136",
      "pbrMetallicRoughness": {
        "baseColorTexture": {
          "index": 0
        },
        "metallicFactor": 0.1630481159561629,
        "roughnessFactor": 0.4
      }
    }
  ],
  "meshes": [
    {
      "name": "Object_0",
      "primitives": [
        {
          "attributes": {
            "NORMAL": 1,
            "POSITION": 0,
            "TEXCOORD_0": 2
          },
          "indices": 3,
          "material": 0,
          "mode": 4
        }
      ]
    },
    {
      "name": "Object_1",
      "primitives": [
        {
          "attributes": {
            "NORMAL": 5,
            "POSITION": 4,
            "TEXCOORD_0": 6
          },
          "indices": 7,
          "material": 0,
          "mode": 4
        }
      ]
    }
  ],
  "nodes": [
    {
      "children": [
        1
      ],
      "matrix": [
        0.0012418930418789387,
        0.0,
        0.0,
        0.0,
        0.0,
        2.757556498431543e-19,
        -0.0012418930418789387,
        0.0,
        0.0,
        0.0012418930418789387,
        2.757556498431543e-19,
        0.0,
        0.0,
        0.0,
        0.0,
        1.0
      ],
      "name": "Sketchfab_model"
    },
    {
      "children": [
        2,
        3
      ],
      "name": "Dumble.obj.cleaner.materialmerger.gles"
    },
    {
      "mesh": 0,
      "name": "Object_2"
    },
    {
      "mesh": 1,
      "name": "Object_3"
    }
  ],
  "samplers": [
    {
      "magFilter": 9729,
      "minFilter": 9987,
      "wrapS": 10497,
      "wrapT": 10497
    }
  ],
  "scene": 0,
  "scenes": [
    {
      "name": "Sketchfab_Scene",
      "nodes": [
        0
      ]
    }
  ],
  "textures": [
    {
      "sampler": 0,
      "source": 0
    }
  ]
}
